/* XPM */
static char *pd[] = {
/* columns rows colors chars-per-pixel */
"32 32 4 1 ",
"  c None",
". c black",
"# c #00FC04",
"$ c white",
/* pixels */
"                                ",
"                                ",
"   .........                    ",
"   .##...##.                    ",
"   .#.###.#.                    ",
"   ..#####..                    ",
"   ..#####..                    ",
"   ..#####..                    ",
"   ..#####..                    ",
"   .#.###.#.                    ",
"   .##...##.                    ",
"   .........                    ",
"    .                           ",
"    .                           ",
"   ..........................   ",
"   ....$$$$$$$$$$$$$$$$$$....   ",
"   .$$$$$$$$$$$$$$$$$$$$$$$$.   ",
"   .$$$$$$$$$$$$$$$$$$$$$$$$.   ",
"   .$$.....$$$$$$$..$$$$$$$$.   ",
"   .$$..$$..$$$$$$..$$$$$$$$.   ",
"   .$$..$$..$$$$$$..$$$$$$$$.   ",
"   .$$..$$..$$$.....$$$$$$$$.   ",
"   .$$.....$$$..$$..$$$$$$$$.   ",
"   .$$..$$$$$$..$$..$$$$$$$$.   ",
"   .$$..$$$$$$..$$..$$$$$$$$.   ",
"   .$$..$$$$$$$.....$$$$$$$$.   ",
"   .$$$$$$$$$$$$$$$$$$$$$$$$.   ",
"   .$$$$$$$$$$$$$$$$$$$$$$$$.   ",
"   ....$$$$$$$$$$$$$$$$$$$$$.   ",
"   ..........................   ",
"                                ",
"                                "
};
